<svg width="378" height="78" viewBox="0 0 378 78" fill="none" xmlns="http://www.w3.org/2000/svg">
<g filter="url(#filter0_d_1_976)">
<rect x="4" width="370" height="70" fill="#2F303A" fill-opacity="0.8"/>
<path d="M97.2873 42.4473H95.3938V40H89.3918V42.4404H87.4504L87.341 38.3525H88.093C88.4986 38.0153 88.8107 37.5208 89.0295 36.8691C89.2528 36.2129 89.4032 35.4017 89.4807 34.4355L89.7678 30.0469H96.2893V38.3525H97.4514L97.2873 42.4473ZM90.4445 38.3525H94.2385V31.708H91.716L91.5451 34.3262C91.4084 36.0807 91.0415 37.4229 90.4445 38.3525ZM104.94 35.6865H101.002V38.3525H105.623V40H98.9514V30.0469H105.61V31.708H101.002V34.0801H104.94V35.6865ZM115.06 36.6846C114.982 37.7555 114.586 38.5986 113.87 39.2139C113.16 39.8291 112.221 40.1367 111.054 40.1367C109.778 40.1367 108.773 39.7083 108.039 38.8516C107.31 37.9902 106.946 36.8099 106.946 35.3105V34.7021C106.946 33.7451 107.114 32.902 107.452 32.1729C107.789 31.4437 108.27 30.8854 108.894 30.498C109.523 30.1061 110.252 29.9102 111.081 29.9102C112.23 29.9102 113.155 30.2178 113.857 30.833C114.559 31.4482 114.964 32.3118 115.074 33.4238H113.023C112.973 32.7812 112.793 32.3164 112.483 32.0293C112.177 31.7376 111.71 31.5918 111.081 31.5918C110.398 31.5918 109.885 31.8379 109.543 32.3301C109.206 32.8177 109.033 33.5765 109.024 34.6064V35.3584C109.024 36.4339 109.186 37.2201 109.509 37.7168C109.837 38.2135 110.352 38.4619 111.054 38.4619C111.688 38.4619 112.159 38.3184 112.469 38.0312C112.784 37.7396 112.964 37.2907 113.009 36.6846H115.06ZM120.074 35.9326H118.891V40H116.84V30.0469H118.891V34.0322H119.828L122.261 30.0469H124.763L121.694 34.7568L125.084 40H122.637L120.074 35.9326ZM133.79 31.708H130.741V40H128.69V31.708H125.682V30.0469H133.79V31.708ZM143.37 35.249C143.37 36.2288 143.197 37.0879 142.85 37.8262C142.504 38.5645 142.007 39.1341 141.36 39.5352C140.717 39.9362 139.979 40.1367 139.145 40.1367C138.32 40.1367 137.584 39.9385 136.937 39.542C136.29 39.1455 135.789 38.5804 135.433 37.8467C135.078 37.1084 134.898 36.2607 134.893 35.3037V34.8115C134.893 33.8317 135.069 32.9704 135.42 32.2275C135.775 31.4801 136.274 30.9082 136.917 30.5117C137.564 30.1107 138.302 29.9102 139.131 29.9102C139.961 29.9102 140.697 30.1107 141.339 30.5117C141.987 30.9082 142.486 31.4801 142.837 32.2275C143.192 32.9704 143.37 33.8294 143.37 34.8047V35.249ZM141.292 34.7979C141.292 33.7542 141.105 32.9613 140.731 32.4189C140.357 31.8766 139.824 31.6055 139.131 31.6055C138.443 31.6055 137.912 31.8743 137.539 32.4121C137.165 32.9453 136.976 33.7292 136.971 34.7637V35.249C136.971 36.2653 137.158 37.0537 137.532 37.6143C137.906 38.1748 138.443 38.4551 139.145 38.4551C139.833 38.4551 140.362 38.1862 140.731 37.6484C141.1 37.1061 141.287 36.3177 141.292 35.2832V34.7979ZM153.387 40H151.33V31.708H147.344V40H145.294V30.0469H153.387V40ZM163.713 40H161.662V35.7344H157.663V40H155.612V30.0469H157.663V34.0801H161.662V30.0469H163.713V40ZM168.015 33.6357H169.615C170.786 33.6357 171.714 33.9206 172.397 34.4902C173.085 35.0553 173.43 35.8187 173.43 36.7803C173.43 37.7464 173.088 38.5234 172.404 39.1113C171.725 39.6947 170.82 39.9909 169.69 40H165.951V30.0469H168.015V33.6357ZM176.335 40H174.284V30.0469H176.335V40ZM168.015 35.29V38.3525H169.649C170.173 38.3525 170.59 38.209 170.9 37.9219C171.215 37.6348 171.372 37.2497 171.372 36.7666C171.372 36.3154 171.222 35.96 170.921 35.7002C170.625 35.4359 170.217 35.2992 169.697 35.29H168.015ZM184.548 35.6865H180.61V38.3525H185.231V40H178.559V30.0469H185.218V31.708H180.61V34.0801H184.548V35.6865ZM198.868 40H196.811V31.708H192.825V40H190.774V30.0469H198.868V40ZM203.144 36.4932V40H201.093V30.0469H204.976C205.723 30.0469 206.379 30.1836 206.944 30.457C207.514 30.7305 207.952 31.1201 208.257 31.626C208.562 32.1273 208.715 32.6992 208.715 33.3418C208.715 34.3171 208.38 35.0872 207.71 35.6523C207.045 36.2129 206.122 36.4932 204.942 36.4932H203.144ZM203.144 34.832H204.976C205.518 34.832 205.93 34.7044 206.213 34.4492C206.5 34.194 206.644 33.8294 206.644 33.3555C206.644 32.8678 206.5 32.4736 206.213 32.1729C205.926 31.8721 205.529 31.7171 205.024 31.708H203.144V34.832ZM216.518 30.0469H218.575V40H216.518V33.3896L212.532 40H210.482V30.0469H212.532V36.6709L216.518 30.0469ZM228.99 30.0469V40H226.932V31.708H224.28L224.116 35.2217C224.047 36.4066 223.897 37.3408 223.664 38.0244C223.432 38.7035 223.092 39.2025 222.646 39.5215C222.199 39.8359 221.589 39.9954 220.814 40H220.281V38.3525L220.622 38.3184C221.137 38.25 221.504 37.9538 221.723 37.4297C221.946 36.901 222.088 35.9622 222.147 34.6133L222.318 30.0469H228.99ZM239.376 35.249C239.376 36.2288 239.203 37.0879 238.857 37.8262C238.51 38.5645 238.014 39.1341 237.367 39.5352C236.724 39.9362 235.986 40.1367 235.152 40.1367C234.327 40.1367 233.591 39.9385 232.944 39.542C232.297 39.1455 231.795 38.5804 231.44 37.8467C231.084 37.1084 230.904 36.2607 230.9 35.3037V34.8115C230.9 33.8317 231.075 32.9704 231.426 32.2275C231.782 31.4801 232.281 30.9082 232.923 30.5117C233.57 30.1107 234.309 29.9102 235.138 29.9102C235.968 29.9102 236.704 30.1107 237.346 30.5117C237.993 30.9082 238.492 31.4801 238.843 32.2275C239.199 32.9704 239.376 33.8294 239.376 34.8047V35.249ZM237.298 34.7979C237.298 33.7542 237.111 32.9613 236.738 32.4189C236.364 31.8766 235.831 31.6055 235.138 31.6055C234.45 31.6055 233.919 31.8743 233.545 32.4121C233.172 32.9453 232.982 33.7292 232.978 34.7637V35.249C232.978 36.2653 233.165 37.0537 233.538 37.6143C233.912 38.1748 234.45 38.4551 235.152 38.4551C235.84 38.4551 236.369 38.1862 236.738 37.6484C237.107 37.1061 237.294 36.3177 237.298 35.2832V34.7979ZM249.531 35.9463H248.348V40H246.297V35.9463H245.087L242.92 40H240.364L243.467 34.6611L240.514 30.0469H243.064L245.279 34.0596H246.297V30.0469H248.348V34.0596H249.346L251.506 30.0469H254.049L251.151 34.6543L254.207 40H251.643L249.531 35.9463ZM261.517 35.6865H257.58V38.3525H262.201V40H255.529V30.0469H262.187V31.708H257.58V34.0801H261.517V35.6865ZM271.924 40H269.874V35.7344H265.875V40H263.824V30.0469H265.875V34.0801H269.874V30.0469H271.924V40ZM280.11 30.0469H282.168V40H280.11V33.3896L276.125 40H274.074V30.0469H276.125V36.6709L280.11 30.0469ZM288.966 40V36.4111H287.298L285.5 40H283.285L285.411 35.7549C284.386 35.1898 283.873 34.3125 283.873 33.123C283.873 32.1478 284.192 31.3936 284.83 30.8604C285.468 30.3271 286.359 30.056 287.503 30.0469H291.023V40H288.966ZM285.924 33.2734C285.924 33.8294 286.058 34.2327 286.327 34.4834C286.6 34.734 287.008 34.8594 287.551 34.8594H288.966V31.708H287.551C286.466 31.708 285.924 32.2298 285.924 33.2734Z" fill="white"/>
</g>
<defs>
<filter id="filter0_d_1_976" x="0" y="0" width="378" height="78" filterUnits="userSpaceOnUse" color-interpolation-filters="sRGB">
<feFlood flood-opacity="0" result="BackgroundImageFix"/>
<feColorMatrix in="SourceAlpha" type="matrix" values="0 0 0 0 0 0 0 0 0 0 0 0 0 0 0 0 0 0 127 0" result="hardAlpha"/>
<feOffset dy="4"/>
<feGaussianBlur stdDeviation="2"/>
<feComposite in2="hardAlpha" operator="out"/>
<feColorMatrix type="matrix" values="0 0 0 0 0 0 0 0 0 0 0 0 0 0 0 0 0 0 0.25 0"/>
<feBlend mode="normal" in2="BackgroundImageFix" result="effect1_dropShadow_1_976"/>
<feBlend mode="normal" in="SourceGraphic" in2="effect1_dropShadow_1_976" result="shape"/>
</filter>
</defs>
</svg>
