<svg width="370" height="70" viewBox="0 0 370 70" fill="none" xmlns="http://www.w3.org/2000/svg">
<rect width="370" height="70" fill="#2F303A" fill-opacity="0.8"/>
<path d="M101.331 42.4473H99.4377V40H93.4358V42.4404H91.4944L91.385 38.3525H92.137C92.5426 38.0153 92.8547 37.5208 93.0735 36.8691C93.2968 36.2129 93.4472 35.4017 93.5247 34.4355L93.8118 30.0469H100.333V38.3525H101.495L101.331 42.4473ZM94.4885 38.3525H98.2825V31.708H95.76L95.5891 34.3262C95.4524 36.0807 95.0855 37.4229 94.4885 38.3525ZM108.963 30.0469H111.021V40H108.963V33.3896L104.978 40H102.927V30.0469H104.978V36.6709L108.963 30.0469ZM118.126 32.7881C118.126 32.4098 117.978 32.1136 117.682 31.8994C117.386 31.6807 116.994 31.5713 116.506 31.5713C116.069 31.5713 115.704 31.6807 115.413 31.8994C115.125 32.1136 114.982 32.3939 114.982 32.7402H112.931C112.931 32.2025 113.081 31.7194 113.382 31.291C113.688 30.8581 114.118 30.5208 114.674 30.2793C115.235 30.0378 115.845 29.917 116.506 29.917C117.655 29.917 118.555 30.1631 119.206 30.6553C119.858 31.1475 120.184 31.8447 120.184 32.7471C120.184 33.1891 120.05 33.5993 119.781 33.9775C119.516 34.3558 119.138 34.6589 118.646 34.8867C119.193 35.0781 119.612 35.3698 119.904 35.7617C120.195 36.1491 120.341 36.6322 120.341 37.2109C120.341 38.1042 119.99 38.8151 119.288 39.3438C118.591 39.8678 117.664 40.1299 116.506 40.1299C115.782 40.1299 115.13 40.0068 114.551 39.7607C113.972 39.5101 113.533 39.1706 113.232 38.7422C112.936 38.3092 112.788 37.8079 112.788 37.2383H114.852C114.852 37.5938 115.007 37.8923 115.317 38.1338C115.627 38.3708 116.023 38.4893 116.506 38.4893C117.053 38.4893 117.484 38.3662 117.798 38.1201C118.117 37.874 118.277 37.5618 118.277 37.1836C118.277 36.6641 118.135 36.2926 117.853 36.0693C117.57 35.8415 117.158 35.7275 116.616 35.7275H115.392V34.1211H116.657C117.636 34.1074 118.126 33.6631 118.126 32.7881ZM127.898 37.9492H124.302L123.619 40H121.438L125.143 30.0469H127.043L130.769 40H128.588L127.898 37.9492ZM124.856 36.2881H127.344L126.093 32.5625L124.856 36.2881ZM138.086 30.0469H140.144V40H138.086V33.3896L134.101 40H132.05V30.0469H134.101V36.6709L138.086 30.0469ZM138.483 27.4287C138.483 28.0348 138.264 28.5247 137.827 28.8984C137.394 29.2721 136.824 29.459 136.118 29.459C135.411 29.459 134.839 29.2744 134.402 28.9053C133.969 28.5361 133.753 28.0439 133.753 27.4287H135.154C135.154 27.7158 135.238 27.9391 135.407 28.0986C135.58 28.2536 135.817 28.3311 136.118 28.3311C136.414 28.3311 136.646 28.2536 136.815 28.0986C136.984 27.9391 137.068 27.7158 137.068 27.4287H138.483ZM150.442 40H148.391V35.7344H144.392V40H142.341V30.0469H144.392V34.0801H148.391V30.0469H150.442V40ZM158.648 35.6865H154.711V38.3525H159.332V40H152.66V30.0469H159.318V31.708H154.711V34.0801H158.648V35.6865ZM163.006 36.4932V40H160.955V30.0469H164.838C165.585 30.0469 166.241 30.1836 166.806 30.457C167.376 30.7305 167.814 31.1201 168.119 31.626C168.424 32.1273 168.577 32.6992 168.577 33.3418C168.577 34.3171 168.242 35.0872 167.572 35.6523C166.907 36.2129 165.984 36.4932 164.804 36.4932H163.006ZM163.006 34.832H164.838C165.38 34.832 165.792 34.7044 166.075 34.4492C166.362 34.194 166.506 33.8294 166.506 33.3555C166.506 32.8678 166.362 32.4736 166.075 32.1729C165.788 31.8721 165.391 31.7171 164.886 31.708H163.006V34.832ZM178.225 36.6846C178.148 37.7555 177.752 38.5986 177.036 39.2139C176.325 39.8291 175.386 40.1367 174.22 40.1367C172.944 40.1367 171.939 39.7083 171.205 38.8516C170.476 37.9902 170.111 36.8099 170.111 35.3105V34.7021C170.111 33.7451 170.28 32.902 170.617 32.1729C170.954 31.4437 171.435 30.8854 172.059 30.498C172.688 30.1061 173.418 29.9102 174.247 29.9102C175.395 29.9102 176.321 30.2178 177.022 30.833C177.724 31.4482 178.13 32.3118 178.239 33.4238H176.188C176.138 32.7812 175.958 32.3164 175.648 32.0293C175.343 31.7376 174.876 31.5918 174.247 31.5918C173.563 31.5918 173.051 31.8379 172.709 32.3301C172.372 32.8177 172.198 33.5765 172.189 34.6064V35.3584C172.189 36.4339 172.351 37.2201 172.675 37.7168C173.003 38.2135 173.518 38.4619 174.22 38.4619C174.853 38.4619 175.325 38.3184 175.635 38.0312C175.949 37.7396 176.129 37.2907 176.175 36.6846H178.225ZM183.239 35.9326H182.057V40H180.006V30.0469H182.057V34.0322H182.993L185.427 30.0469H187.929L184.859 34.7568L188.25 40H185.803L183.239 35.9326ZM195.431 30.0469H197.488V40H195.431V33.3896L191.445 40H189.395V30.0469H191.445V36.6709L195.431 30.0469ZM205.674 35.6865H201.736V38.3525H206.358V40H199.686V30.0469H206.344V31.708H201.736V34.0801H205.674V35.6865ZM213.938 36.4932V40H211.887V30.0469H215.77C216.517 30.0469 217.173 30.1836 217.739 30.457C218.308 30.7305 218.746 31.1201 219.051 31.626C219.356 32.1273 219.509 32.6992 219.509 33.3418C219.509 34.3171 219.174 35.0872 218.504 35.6523C217.839 36.2129 216.916 36.4932 215.736 36.4932H213.938ZM213.938 34.832H215.77C216.312 34.832 216.725 34.7044 217.007 34.4492C217.294 34.194 217.438 33.8294 217.438 33.3555C217.438 32.8678 217.294 32.4736 217.007 32.1729C216.72 31.8721 216.324 31.7171 215.818 31.708H213.938V34.832ZM227.332 35.6865H223.395V38.3525H228.016V40H221.344V30.0469H228.002V31.708H223.395V34.0801H227.332V35.6865ZM231.683 30.0469V38.3525H234.445V30.0469H236.502V38.3525H239.237V30.0469H241.288V40H229.625V30.0469H231.683ZM249.473 35.6865H245.536V38.3525H250.157V40H243.485V30.0469H250.143V31.708H245.536V34.0801H249.473V35.6865ZM259.88 40H257.83V35.7344H253.831V40H251.78V30.0469H253.831V34.0801H257.83V30.0469H259.88V40ZM268.066 30.0469H270.124V40H268.066V33.3896L264.081 40H262.03V30.0469H264.081V36.6709L268.066 30.0469ZM276.922 40V36.4111H275.254L273.456 40H271.241L273.367 35.7549C272.342 35.1898 271.829 34.3125 271.829 33.123C271.829 32.1478 272.148 31.3936 272.786 30.8604C273.424 30.3271 274.315 30.056 275.459 30.0469H278.979V40H276.922ZM273.88 33.2734C273.88 33.8294 274.014 34.2327 274.283 34.4834C274.556 34.734 274.964 34.8594 275.507 34.8594H276.922V31.708H275.507C274.422 31.708 273.88 32.2298 273.88 33.2734Z" fill="white"/>
</svg>
