<svg width="370" height="70" viewBox="0 0 370 70" fill="none" xmlns="http://www.w3.org/2000/svg">
<rect width="370" height="70" fill="#2F303A" fill-opacity="0.8"/>
<path d="M89.6145 30.0469L92.1711 37.2656L94.7141 30.0469H97.4075V40H95.3498V37.2793L95.5549 32.583L92.8684 40H91.4602L88.7805 32.5898L88.9856 37.2793V40H86.9348V30.0469H89.6145ZM107.794 35.249C107.794 36.2288 107.621 37.0879 107.275 37.8262C106.928 38.5645 106.432 39.1341 105.784 39.5352C105.142 39.9362 104.404 40.1367 103.57 40.1367C102.745 40.1367 102.009 39.9385 101.362 39.542C100.715 39.1455 100.213 38.5804 99.8577 37.8467C99.5023 37.1084 99.3223 36.2607 99.3177 35.3037V34.8115C99.3177 33.8317 99.4932 32.9704 99.8441 32.2275C100.2 31.4801 100.699 30.9082 101.341 30.5117C101.988 30.1107 102.727 29.9102 103.556 29.9102C104.385 29.9102 105.121 30.1107 105.764 30.5117C106.411 30.9082 106.91 31.4801 107.261 32.2275C107.617 32.9704 107.794 33.8294 107.794 34.8047V35.249ZM105.716 34.7979C105.716 33.7542 105.529 32.9613 105.156 32.4189C104.782 31.8766 104.249 31.6055 103.556 31.6055C102.868 31.6055 102.337 31.8743 101.963 32.4121C101.59 32.9453 101.4 33.7292 101.396 34.7637V35.249C101.396 36.2653 101.583 37.0537 101.956 37.6143C102.33 38.1748 102.868 38.4551 103.57 38.4551C104.258 38.4551 104.786 38.1862 105.156 37.6484C105.525 37.1061 105.712 36.3177 105.716 35.2832V34.7979ZM116.199 31.708H111.755V33.6357H113.355C114.526 33.6357 115.454 33.9206 116.137 34.4902C116.825 35.0553 117.169 35.8187 117.169 36.7803C117.169 37.7464 116.828 38.5234 116.144 39.1113C115.465 39.6947 114.56 39.9909 113.43 40H109.684V30.0469H116.199V31.708ZM111.755 35.29V38.3525H113.389C113.913 38.3525 114.33 38.209 114.64 37.9219C114.954 37.6348 115.112 37.2497 115.112 36.7666C115.112 36.3154 114.961 35.96 114.661 35.7002C114.364 35.4359 113.956 35.2992 113.437 35.29H111.755ZM124.87 30.0469H126.927V40H124.87V33.3896L120.884 40H118.833V30.0469H120.884V36.6709L124.87 30.0469ZM137.341 30.0469V40H135.284V31.708H132.631L132.467 35.2217C132.399 36.4066 132.249 37.3408 132.016 38.0244C131.784 38.7035 131.444 39.2025 130.998 39.5215C130.551 39.8359 129.94 39.9954 129.166 40H128.632V38.3525L128.974 38.3184C129.489 38.25 129.856 37.9538 130.075 37.4297C130.298 36.901 130.439 35.9622 130.499 34.6133L130.669 30.0469H137.341ZM141.603 33.6357H143.203C144.374 33.6357 145.301 33.9206 145.985 34.4902C146.673 35.0553 147.017 35.8187 147.017 36.7803C147.017 37.7464 146.675 38.5234 145.992 39.1113C145.313 39.6947 144.408 39.9909 143.278 40H139.539V30.0469H141.603V33.6357ZM141.603 35.29V38.3525H143.237C143.761 38.3525 144.178 38.209 144.488 37.9219C144.802 37.6348 144.96 37.2497 144.96 36.7666C144.96 36.3154 144.809 35.96 144.508 35.7002C144.212 35.4359 143.804 35.2992 143.285 35.29H141.603ZM156.837 40H154.786V35.7344H150.787V40H148.736V30.0469H150.787V34.0801H154.786V30.0469H156.837V40ZM161.139 33.6357H162.739C163.91 33.6357 164.838 33.9206 165.521 34.4902C166.209 35.0553 166.554 35.8187 166.554 36.7803C166.554 37.7464 166.212 38.5234 165.528 39.1113C164.849 39.6947 163.944 39.9909 162.814 40H159.075V30.0469H161.139V33.6357ZM169.459 40H167.408V30.0469H169.459V40ZM161.139 35.29V38.3525H162.773C163.297 38.3525 163.714 38.209 164.024 37.9219C164.339 37.6348 164.496 37.2497 164.496 36.7666C164.496 36.3154 164.346 35.96 164.045 35.7002C163.749 35.4359 163.341 35.2992 162.821 35.29H161.139ZM177.672 35.6865H173.734V38.3525H178.355V40H171.683V30.0469H178.342V31.708H173.734V34.0801H177.672V35.6865ZM191.992 40H189.935V31.708H185.949V40H183.898V30.0469H191.992V40ZM196.268 36.4932V40H194.217V30.0469H198.1C198.847 30.0469 199.503 30.1836 200.068 30.457C200.638 30.7305 201.076 31.1201 201.381 31.626C201.686 32.1273 201.839 32.6992 201.839 33.3418C201.839 34.3171 201.504 35.0872 200.834 35.6523C200.169 36.2129 199.246 36.4932 198.066 36.4932H196.268ZM196.268 34.832H198.1C198.642 34.832 199.054 34.7044 199.337 34.4492C199.624 34.194 199.768 33.8294 199.768 33.3555C199.768 32.8678 199.624 32.4736 199.337 32.1729C199.05 31.8721 198.653 31.7171 198.148 31.708H196.268V34.832ZM209.642 30.0469H211.699V40H209.642V33.3896L205.656 40H203.606V30.0469H205.656V36.6709L209.642 30.0469ZM222.114 30.0469V40H220.056V31.708H217.404L217.24 35.2217C217.171 36.4066 217.021 37.3408 216.788 38.0244C216.556 38.7035 216.216 39.2025 215.77 39.5215C215.323 39.8359 214.713 39.9954 213.938 40H213.405V38.3525L213.746 38.3184C214.261 38.25 214.628 37.9538 214.847 37.4297C215.07 36.901 215.212 35.9622 215.271 34.6133L215.442 30.0469H222.114ZM232.5 35.249C232.5 36.2288 232.327 37.0879 231.981 37.8262C231.634 38.5645 231.138 39.1341 230.491 39.5352C229.848 39.9362 229.11 40.1367 228.276 40.1367C227.451 40.1367 226.715 39.9385 226.068 39.542C225.421 39.1455 224.919 38.5804 224.564 37.8467C224.208 37.1084 224.028 36.2607 224.024 35.3037V34.8115C224.024 33.8317 224.199 32.9704 224.55 32.2275C224.906 31.4801 225.405 30.9082 226.047 30.5117C226.694 30.1107 227.433 29.9102 228.262 29.9102C229.092 29.9102 229.828 30.1107 230.47 30.5117C231.117 30.9082 231.616 31.4801 231.967 32.2275C232.323 32.9704 232.5 33.8294 232.5 34.8047V35.249ZM230.422 34.7979C230.422 33.7542 230.235 32.9613 229.862 32.4189C229.488 31.8766 228.955 31.6055 228.262 31.6055C227.574 31.6055 227.043 31.8743 226.669 32.4121C226.296 32.9453 226.106 33.7292 226.102 34.7637V35.249C226.102 36.2653 226.289 37.0537 226.662 37.6143C227.036 38.1748 227.574 38.4551 228.276 38.4551C228.964 38.4551 229.493 38.1862 229.862 37.6484C230.231 37.1061 230.418 36.3177 230.422 35.2832V34.7979ZM242.655 35.9463H241.472V40H239.421V35.9463H238.211L236.044 40H233.488L236.591 34.6611L233.638 30.0469H236.188L238.403 34.0596H239.421V30.0469H241.472V34.0596H242.47L244.63 30.0469H247.173L244.275 34.6543L247.331 40H244.767L242.655 35.9463ZM254.641 35.6865H250.704V38.3525H255.325V40H248.653V30.0469H255.311V31.708H250.704V34.0801H254.641V35.6865ZM265.048 40H262.998V35.7344H258.999V40H256.948V30.0469H258.999V34.0801H262.998V30.0469H265.048V40ZM273.234 30.0469H275.292V40H273.234V33.3896L269.249 40H267.198V30.0469H269.249V36.6709L273.234 30.0469ZM282.09 40V36.4111H280.422L278.624 40H276.409L278.535 35.7549C277.51 35.1898 276.997 34.3125 276.997 33.123C276.997 32.1478 277.316 31.3936 277.954 30.8604C278.592 30.3271 279.483 30.056 280.627 30.0469H284.147V40H282.09ZM279.048 33.2734C279.048 33.8294 279.182 34.2327 279.451 34.4834C279.724 34.734 280.132 34.8594 280.675 34.8594H282.09V31.708H280.675C279.59 31.708 279.048 32.2298 279.048 33.2734Z" fill="white"/>
</svg>
